<mxfile host="Electron" agent="Mozilla/5.0 (Windows NT 10.0; Win64; x64) AppleWebKit/537.36 (KHTML, like Gecko) draw.io/28.1.2 Chrome/138.0.7204.243 Electron/37.4.0 Safari/537.36" version="28.1.2">
  <diagram name="Page-1" id="oftUQChQdi4GC8qau9KG">
    <mxGraphModel dx="2210" dy="833" grid="0" gridSize="10" guides="1" tooltips="1" connect="1" arrows="1" fold="1" page="0" pageScale="1" pageWidth="850" pageHeight="1100" math="0" shadow="0">
      <root>
        <mxCell id="0" />
        <mxCell id="1" parent="0" />
        <mxCell id="haI4EbskuqqMDFLooz5_-1" value="&lt;font style=&quot;font-size: 40px;&quot;&gt;Data Flow Diagram&lt;/font&gt;" style="text;html=1;align=center;verticalAlign=middle;whiteSpace=wrap;rounded=0;" parent="1" vertex="1">
          <mxGeometry x="-485" y="30" width="400" height="60" as="geometry" />
        </mxCell>
        <mxCell id="haI4EbskuqqMDFLooz5_-2" value="" style="rounded=0;whiteSpace=wrap;html=1;strokeColor=default;fillColor=none;dashed=1;" parent="1" vertex="1">
          <mxGeometry x="-645" y="200" width="200" height="510" as="geometry" />
        </mxCell>
        <mxCell id="haI4EbskuqqMDFLooz5_-3" value="&lt;font style=&quot;font-size: 24px;&quot;&gt;Sources&lt;/font&gt;" style="rounded=1;whiteSpace=wrap;html=1;strokeColor=none;fontStyle=1" parent="1" vertex="1">
          <mxGeometry x="-610" y="170" width="130" height="60" as="geometry" />
        </mxCell>
        <mxCell id="haI4EbskuqqMDFLooz5_-4" value="" style="rounded=0;whiteSpace=wrap;html=1;fillStyle=hatch;fillColor=none;gradientColor=#ffa500;strokeColor=#d79b00;strokeWidth=2;" parent="1" vertex="1">
          <mxGeometry x="-405" y="250" width="200" height="460" as="geometry" />
        </mxCell>
        <mxCell id="haI4EbskuqqMDFLooz5_-5" value="&lt;font style=&quot;font-size: 24px;&quot;&gt;&lt;b&gt;Bronze Layer&lt;/b&gt;&lt;/font&gt;" style="rounded=1;whiteSpace=wrap;html=1;fillColor=#ffcc99;strokeColor=#36393d;strokeWidth=2;" parent="1" vertex="1">
          <mxGeometry x="-405" y="190" width="200" height="60" as="geometry" />
        </mxCell>
        <mxCell id="haI4EbskuqqMDFLooz5_-16" style="edgeStyle=orthogonalEdgeStyle;rounded=0;orthogonalLoop=1;jettySize=auto;html=1;entryX=0;entryY=0.5;entryDx=0;entryDy=0;" parent="1" source="haI4EbskuqqMDFLooz5_-6" target="haI4EbskuqqMDFLooz5_-11" edge="1">
          <mxGeometry relative="1" as="geometry" />
        </mxCell>
        <mxCell id="haI4EbskuqqMDFLooz5_-17" style="edgeStyle=orthogonalEdgeStyle;rounded=0;orthogonalLoop=1;jettySize=auto;html=1;entryX=0;entryY=0.75;entryDx=0;entryDy=0;" parent="1" source="haI4EbskuqqMDFLooz5_-6" target="haI4EbskuqqMDFLooz5_-10" edge="1">
          <mxGeometry relative="1" as="geometry" />
        </mxCell>
        <mxCell id="haI4EbskuqqMDFLooz5_-18" style="edgeStyle=orthogonalEdgeStyle;rounded=0;orthogonalLoop=1;jettySize=auto;html=1;entryX=0;entryY=0.5;entryDx=0;entryDy=0;" parent="1" source="haI4EbskuqqMDFLooz5_-6" target="haI4EbskuqqMDFLooz5_-12" edge="1">
          <mxGeometry relative="1" as="geometry" />
        </mxCell>
        <mxCell id="haI4EbskuqqMDFLooz5_-6" value="" style="image;aspect=fixed;html=1;points=[];align=center;fontSize=12;image=img/lib/azure2/general/Folder_Blank.svg;" parent="1" vertex="1">
          <mxGeometry x="-579" y="327" width="69" height="56.00000000000001" as="geometry" />
        </mxCell>
        <mxCell id="haI4EbskuqqMDFLooz5_-20" style="edgeStyle=orthogonalEdgeStyle;rounded=0;orthogonalLoop=1;jettySize=auto;html=1;" parent="1" source="haI4EbskuqqMDFLooz5_-7" target="haI4EbskuqqMDFLooz5_-13" edge="1">
          <mxGeometry relative="1" as="geometry" />
        </mxCell>
        <mxCell id="haI4EbskuqqMDFLooz5_-21" style="edgeStyle=orthogonalEdgeStyle;rounded=0;orthogonalLoop=1;jettySize=auto;html=1;entryX=0;entryY=0.5;entryDx=0;entryDy=0;" parent="1" source="haI4EbskuqqMDFLooz5_-7" target="haI4EbskuqqMDFLooz5_-14" edge="1">
          <mxGeometry relative="1" as="geometry" />
        </mxCell>
        <mxCell id="haI4EbskuqqMDFLooz5_-22" style="edgeStyle=orthogonalEdgeStyle;rounded=0;orthogonalLoop=1;jettySize=auto;html=1;entryX=0;entryY=0.5;entryDx=0;entryDy=0;" parent="1" source="haI4EbskuqqMDFLooz5_-7" target="haI4EbskuqqMDFLooz5_-15" edge="1">
          <mxGeometry relative="1" as="geometry" />
        </mxCell>
        <mxCell id="haI4EbskuqqMDFLooz5_-7" value="" style="image;aspect=fixed;html=1;points=[];align=center;fontSize=12;image=img/lib/azure2/general/Folder_Blank.svg;" parent="1" vertex="1">
          <mxGeometry x="-579" y="527" width="69" height="56.00000000000001" as="geometry" />
        </mxCell>
        <mxCell id="haI4EbskuqqMDFLooz5_-8" value="&lt;b&gt;CRM&lt;/b&gt;" style="text;html=1;align=center;verticalAlign=middle;whiteSpace=wrap;rounded=0;" parent="1" vertex="1">
          <mxGeometry x="-579" y="383" width="64" height="30" as="geometry" />
        </mxCell>
        <mxCell id="haI4EbskuqqMDFLooz5_-9" value="&lt;b&gt;ERP&lt;/b&gt;" style="text;html=1;align=center;verticalAlign=middle;whiteSpace=wrap;rounded=0;" parent="1" vertex="1">
          <mxGeometry x="-575" y="583" width="60" height="30" as="geometry" />
        </mxCell>
        <mxCell id="2RK1ms2FEc79dyjwCnbF-10" style="edgeStyle=orthogonalEdgeStyle;rounded=0;orthogonalLoop=1;jettySize=auto;html=1;" parent="1" source="haI4EbskuqqMDFLooz5_-10" target="2RK1ms2FEc79dyjwCnbF-4" edge="1">
          <mxGeometry relative="1" as="geometry" />
        </mxCell>
        <mxCell id="haI4EbskuqqMDFLooz5_-10" value="crm_sales_details" style="text;html=1;align=center;verticalAlign=middle;whiteSpace=wrap;rounded=0;strokeColor=#36393d;fillColor=#ffcc99;" parent="1" vertex="1">
          <mxGeometry x="-395" y="295" width="180" height="40" as="geometry" />
        </mxCell>
        <mxCell id="2RK1ms2FEc79dyjwCnbF-11" style="edgeStyle=orthogonalEdgeStyle;rounded=0;orthogonalLoop=1;jettySize=auto;html=1;entryX=0;entryY=0.5;entryDx=0;entryDy=0;" parent="1" source="haI4EbskuqqMDFLooz5_-11" target="2RK1ms2FEc79dyjwCnbF-5" edge="1">
          <mxGeometry relative="1" as="geometry" />
        </mxCell>
        <mxCell id="haI4EbskuqqMDFLooz5_-11" value="crm_cust_info" style="text;html=1;align=center;verticalAlign=middle;whiteSpace=wrap;rounded=0;strokeColor=#36393d;fillColor=#ffcc99;" parent="1" vertex="1">
          <mxGeometry x="-395" y="335" width="180" height="40" as="geometry" />
        </mxCell>
        <mxCell id="2RK1ms2FEc79dyjwCnbF-12" style="edgeStyle=orthogonalEdgeStyle;rounded=0;orthogonalLoop=1;jettySize=auto;html=1;" parent="1" source="haI4EbskuqqMDFLooz5_-12" target="2RK1ms2FEc79dyjwCnbF-6" edge="1">
          <mxGeometry relative="1" as="geometry" />
        </mxCell>
        <mxCell id="haI4EbskuqqMDFLooz5_-12" value="crm_prd_info" style="text;html=1;align=center;verticalAlign=middle;whiteSpace=wrap;rounded=0;strokeColor=#36393d;fillColor=#ffcc99;" parent="1" vertex="1">
          <mxGeometry x="-395" y="375" width="180" height="40" as="geometry" />
        </mxCell>
        <mxCell id="2RK1ms2FEc79dyjwCnbF-13" style="edgeStyle=orthogonalEdgeStyle;rounded=0;orthogonalLoop=1;jettySize=auto;html=1;" parent="1" source="haI4EbskuqqMDFLooz5_-13" target="2RK1ms2FEc79dyjwCnbF-7" edge="1">
          <mxGeometry relative="1" as="geometry" />
        </mxCell>
        <mxCell id="haI4EbskuqqMDFLooz5_-13" value="erp_cust_az12" style="text;html=1;align=center;verticalAlign=middle;whiteSpace=wrap;rounded=0;strokeColor=#36393d;fillColor=#ffcc99;" parent="1" vertex="1">
          <mxGeometry x="-395" y="495" width="180" height="40" as="geometry" />
        </mxCell>
        <mxCell id="2RK1ms2FEc79dyjwCnbF-14" style="edgeStyle=orthogonalEdgeStyle;rounded=0;orthogonalLoop=1;jettySize=auto;html=1;entryX=0;entryY=0.5;entryDx=0;entryDy=0;" parent="1" source="haI4EbskuqqMDFLooz5_-14" target="2RK1ms2FEc79dyjwCnbF-8" edge="1">
          <mxGeometry relative="1" as="geometry" />
        </mxCell>
        <mxCell id="haI4EbskuqqMDFLooz5_-14" value="erp_loc_a101" style="text;html=1;align=center;verticalAlign=middle;whiteSpace=wrap;rounded=0;strokeColor=#36393d;fillColor=#ffcc99;" parent="1" vertex="1">
          <mxGeometry x="-395" y="535" width="180" height="40" as="geometry" />
        </mxCell>
        <mxCell id="2RK1ms2FEc79dyjwCnbF-15" style="edgeStyle=orthogonalEdgeStyle;rounded=0;orthogonalLoop=1;jettySize=auto;html=1;" parent="1" source="haI4EbskuqqMDFLooz5_-15" target="2RK1ms2FEc79dyjwCnbF-9" edge="1">
          <mxGeometry relative="1" as="geometry" />
        </mxCell>
        <mxCell id="haI4EbskuqqMDFLooz5_-15" value="erp_px_cat_g1v2" style="text;html=1;align=center;verticalAlign=middle;whiteSpace=wrap;rounded=0;strokeColor=#36393d;fillColor=#ffcc99;" parent="1" vertex="1">
          <mxGeometry x="-395" y="575" width="180" height="40" as="geometry" />
        </mxCell>
        <mxCell id="2RK1ms2FEc79dyjwCnbF-2" value="" style="rounded=0;whiteSpace=wrap;html=1;fillStyle=hatch;fillColor=none;gradientColor=#b3b3b3;strokeColor=#666666;strokeWidth=2;" parent="1" vertex="1">
          <mxGeometry x="-130" y="250" width="200" height="460" as="geometry" />
        </mxCell>
        <mxCell id="2RK1ms2FEc79dyjwCnbF-3" value="&lt;font style=&quot;font-size: 24px;&quot;&gt;&lt;b&gt;Silver Layer&lt;/b&gt;&lt;/font&gt;" style="rounded=1;whiteSpace=wrap;html=1;fillColor=#f5f5f5;gradientColor=#b3b3b3;strokeColor=#666666;strokeWidth=2;" parent="1" vertex="1">
          <mxGeometry x="-130" y="190" width="200" height="60" as="geometry" />
        </mxCell>
        <mxCell id="2RK1ms2FEc79dyjwCnbF-4" value="crm_sales_details" style="text;html=1;align=center;verticalAlign=middle;whiteSpace=wrap;rounded=0;strokeColor=#666666;fillColor=#f5f5f5;gradientColor=#b3b3b3;" parent="1" vertex="1">
          <mxGeometry x="-120" y="295" width="180" height="40" as="geometry" />
        </mxCell>
        <mxCell id="2RK1ms2FEc79dyjwCnbF-5" value="crm_cust_info" style="text;html=1;align=center;verticalAlign=middle;whiteSpace=wrap;rounded=0;strokeColor=#666666;fillColor=#f5f5f5;gradientColor=#b3b3b3;" parent="1" vertex="1">
          <mxGeometry x="-120" y="335" width="180" height="40" as="geometry" />
        </mxCell>
        <mxCell id="2RK1ms2FEc79dyjwCnbF-6" value="crm_prd_info" style="text;html=1;align=center;verticalAlign=middle;whiteSpace=wrap;rounded=0;strokeColor=#666666;fillColor=#f5f5f5;gradientColor=#b3b3b3;" parent="1" vertex="1">
          <mxGeometry x="-120" y="375" width="180" height="40" as="geometry" />
        </mxCell>
        <mxCell id="2RK1ms2FEc79dyjwCnbF-7" value="erp_cust_az12" style="text;html=1;align=center;verticalAlign=middle;whiteSpace=wrap;rounded=0;strokeColor=#666666;fillColor=#f5f5f5;gradientColor=#b3b3b3;" parent="1" vertex="1">
          <mxGeometry x="-120" y="495" width="180" height="40" as="geometry" />
        </mxCell>
        <mxCell id="2RK1ms2FEc79dyjwCnbF-8" value="erp_loc_a101" style="text;html=1;align=center;verticalAlign=middle;whiteSpace=wrap;rounded=0;strokeColor=#666666;fillColor=#f5f5f5;gradientColor=#b3b3b3;" parent="1" vertex="1">
          <mxGeometry x="-120" y="535" width="180" height="40" as="geometry" />
        </mxCell>
        <mxCell id="2RK1ms2FEc79dyjwCnbF-9" value="erp_px_cat_g1v2" style="text;html=1;align=center;verticalAlign=middle;whiteSpace=wrap;rounded=0;strokeColor=#666666;fillColor=#f5f5f5;gradientColor=#b3b3b3;" parent="1" vertex="1">
          <mxGeometry x="-120" y="575" width="180" height="40" as="geometry" />
        </mxCell>
        <mxCell id="E00gNJjZ8YH-AWL679Da-1" value="" style="rounded=0;whiteSpace=wrap;html=1;fillStyle=hatch;fillColor=none;gradientColor=#ffa500;strokeColor=#d79b00;strokeWidth=2;" parent="1" vertex="1">
          <mxGeometry x="140" y="250" width="200" height="460" as="geometry" />
        </mxCell>
        <mxCell id="E00gNJjZ8YH-AWL679Da-2" value="&lt;font style=&quot;font-size: 24px;&quot;&gt;&lt;b&gt;Gold Layer&lt;/b&gt;&lt;/font&gt;" style="rounded=1;whiteSpace=wrap;html=1;fillColor=#ffcd28;gradientColor=#ffa500;strokeColor=#d79b00;strokeWidth=2;" parent="1" vertex="1">
          <mxGeometry x="140" y="190" width="200" height="60" as="geometry" />
        </mxCell>
        <mxCell id="E00gNJjZ8YH-AWL679Da-3" value="fact_sales" style="text;html=1;align=center;verticalAlign=middle;whiteSpace=wrap;rounded=0;strokeColor=#d79b00;fillColor=#ffcd28;gradientColor=#ffa500;" parent="1" vertex="1">
          <mxGeometry x="150" y="335" width="180" height="40" as="geometry" />
        </mxCell>
        <mxCell id="E00gNJjZ8YH-AWL679Da-4" value="dim_customers" style="text;html=1;align=center;verticalAlign=middle;whiteSpace=wrap;rounded=0;strokeColor=#d79b00;fillColor=#ffcd28;gradientColor=#ffa500;" parent="1" vertex="1">
          <mxGeometry x="150" y="435" width="180" height="40" as="geometry" />
        </mxCell>
        <mxCell id="E00gNJjZ8YH-AWL679Da-5" value="dim_products" style="text;html=1;align=center;verticalAlign=middle;whiteSpace=wrap;rounded=0;strokeColor=#d79b00;fillColor=#ffcd28;gradientColor=#ffa500;" parent="1" vertex="1">
          <mxGeometry x="150" y="535" width="180" height="40" as="geometry" />
        </mxCell>
        <mxCell id="E00gNJjZ8YH-AWL679Da-10" value="" style="endArrow=classic;html=1;rounded=0;exitX=1;exitY=0.5;exitDx=0;exitDy=0;entryX=0;entryY=0.5;entryDx=0;entryDy=0;jumpStyle=gap;" parent="1" source="2RK1ms2FEc79dyjwCnbF-4" target="E00gNJjZ8YH-AWL679Da-3" edge="1">
          <mxGeometry width="50" height="50" relative="1" as="geometry">
            <mxPoint x="60" y="327" as="sourcePoint" />
            <mxPoint x="110" y="277" as="targetPoint" />
          </mxGeometry>
        </mxCell>
        <mxCell id="E00gNJjZ8YH-AWL679Da-11" value="" style="endArrow=classic;html=1;rounded=0;exitX=1;exitY=0.5;exitDx=0;exitDy=0;entryX=0;entryY=0.5;entryDx=0;entryDy=0;jumpStyle=gap;" parent="1" source="2RK1ms2FEc79dyjwCnbF-5" target="E00gNJjZ8YH-AWL679Da-4" edge="1">
          <mxGeometry width="50" height="50" relative="1" as="geometry">
            <mxPoint x="90" y="390" as="sourcePoint" />
            <mxPoint x="180" y="430" as="targetPoint" />
          </mxGeometry>
        </mxCell>
        <mxCell id="E00gNJjZ8YH-AWL679Da-12" value="" style="endArrow=classic;html=1;rounded=0;exitX=1;exitY=0.5;exitDx=0;exitDy=0;entryX=0;entryY=0.5;entryDx=0;entryDy=0;jumpStyle=gap;" parent="1" source="2RK1ms2FEc79dyjwCnbF-7" target="E00gNJjZ8YH-AWL679Da-4" edge="1">
          <mxGeometry width="50" height="50" relative="1" as="geometry">
            <mxPoint x="100" y="440" as="sourcePoint" />
            <mxPoint x="190" y="540" as="targetPoint" />
          </mxGeometry>
        </mxCell>
        <mxCell id="E00gNJjZ8YH-AWL679Da-13" value="" style="endArrow=classic;html=1;rounded=0;exitX=1;exitY=0.5;exitDx=0;exitDy=0;entryX=0;entryY=0.75;entryDx=0;entryDy=0;jumpStyle=gap;" parent="1" target="E00gNJjZ8YH-AWL679Da-4" edge="1">
          <mxGeometry width="50" height="50" relative="1" as="geometry">
            <mxPoint x="60" y="555" as="sourcePoint" />
            <mxPoint x="150" y="495" as="targetPoint" />
          </mxGeometry>
        </mxCell>
        <mxCell id="E00gNJjZ8YH-AWL679Da-14" value="" style="endArrow=classic;html=1;rounded=0;exitX=1;exitY=0.5;exitDx=0;exitDy=0;entryX=0;entryY=0.75;entryDx=0;entryDy=0;jumpStyle=gap;" parent="1" source="2RK1ms2FEc79dyjwCnbF-9" target="E00gNJjZ8YH-AWL679Da-5" edge="1">
          <mxGeometry width="50" height="50" relative="1" as="geometry">
            <mxPoint x="100" y="630" as="sourcePoint" />
            <mxPoint x="190" y="540" as="targetPoint" />
          </mxGeometry>
        </mxCell>
        <mxCell id="E00gNJjZ8YH-AWL679Da-15" value="" style="endArrow=classic;html=1;rounded=0;exitX=1;exitY=0.5;exitDx=0;exitDy=0;entryX=0;entryY=0.5;entryDx=0;entryDy=0;jumpStyle=gap;" parent="1" source="2RK1ms2FEc79dyjwCnbF-6" target="E00gNJjZ8YH-AWL679Da-5" edge="1">
          <mxGeometry width="50" height="50" relative="1" as="geometry">
            <mxPoint x="80" y="460" as="sourcePoint" />
            <mxPoint x="170" y="430" as="targetPoint" />
          </mxGeometry>
        </mxCell>
        <mxCell id="8ADxxFnNIemMIF-QqeQU-1" value="&lt;font style=&quot;font-size: 16px;&quot;&gt;Data Lineage&lt;/font&gt;" style="text;html=1;align=center;verticalAlign=middle;whiteSpace=wrap;rounded=0;" vertex="1" parent="1">
          <mxGeometry x="-100" y="50" width="150" height="30" as="geometry" />
        </mxCell>
      </root>
    </mxGraphModel>
  </diagram>
</mxfile>
